<svg id="Layer_1" data-name="Layer 1" xmlns="http://www.w3.org/2000/svg" viewBox="0 0 121.16 51.42"><defs><style>.cls-1{fill:#19355f;}</style></defs><path class="cls-1" d="M53,32.76a13,13,0,0,0-8.76-10.23,11.71,11.71,0,0,0-2-.49A12.83,12.83,0,0,0,38,22a11.94,11.94,0,0,0-2.26.59,13.09,13.09,0,0,0-8.4,9.79H19.6A21,21,0,0,1,21,27.13h0c.1-.26.21-.5.31-.72l.23-.5,0-.06c.06-.13.13-.26.2-.39h0c.07-.15.15-.29.23-.44s.28-.51.43-.75.27-.44.41-.66.29-.44.46-.67.35-.48.57-.77l.57-.69c.17-.2.35-.41.56-.64l.49-.51.13-.12.09-.1.31-.3.07-.06,0,0,.24-.22c.38-.35.78-.69,1.23-1,.13-.1.25-.2.39-.29l.2-.14.42-.3.19-.13.11-.08.46-.29.14-.08c.15-.09.29-.18.45-.26l.6-.34.2-.1.52-.26a18.73,18.73,0,0,1,2.18-.9l.62-.21h0l.06,0,.3-.08.48-.14V9.71l-.22,0-.52.12-.53.13-.15,0h0l-.83.24c-.53.16-1,.33-1.56.53h0c-.44.17-.89.35-1.36.56h0l-.55.25c-.16.08-.32.15-.48.24a24.22,24.22,0,0,0-2.79,1.61l-.08,0-.12.08-.55.39,0,0-.1.07c-.12.08-.23.17-.34.26l-.38.28-.1.08-.47.37c-.42.36-.83.72-1.2,1.07l-.09.08-.17.17-.33.32c-.4.39-.79.82-1.21,1.3-.27.32-.51.6-.73.88l-.1.13-.22.28a25.57,25.57,0,0,0-5.24,15.6c0,.75,0,1.48.09,2.18l0,.38h20.9V55.12a20.36,20.36,0,0,1-7.17-3.23c-.21-.14-.41-.29-.6-.44A7.27,7.27,0,0,1,27.1,51a20.49,20.49,0,0,1-1.71-1.54L25,49l-.48-.53v0c-.1-.11-.21-.23-.3-.35v0c-.2-.23-.4-.48-.62-.78h0A3.52,3.52,0,0,1,23.3,47l0,0a3.24,3.24,0,0,1-.28-.4l-.24-.35,0-.08c-.08-.11-.16-.24-.26-.4a21.2,21.2,0,0,1-1.91-4.1v0c-.12-.33-.21-.64-.3-1v0a2,2,0,0,1-.09-.33H15A25.81,25.81,0,0,0,29.54,58.41v0c.51.24,1,.46,1.66.69v0l.92.32v0q.87.29,1.65.48v0c.65.17,1.31.31,2,.43h0c.59.11,1.2.19,1.8.25l2.5.13h.41V48l1.77-.14h0a12.77,12.77,0,0,0,2-.49A13.12,13.12,0,0,0,53,32.76ZM47.91,37A8,8,0,0,1,44,42a7.83,7.83,0,0,1-1.81.71,8.13,8.13,0,0,1-1.63.25V32.42h-8a8,8,0,0,1,9.63-5.25,7.49,7.49,0,0,1,1.81.71,8,8,0,0,1,4,5.05,8.09,8.09,0,0,1,.26,2A8,8,0,0,1,47.91,37Z" transform="translate(-14.42 -9.29)"/><path class="cls-1" d="M65.9,34.94c0,.23,0,.45,0,.66v.46c0,.13,0,.32,0,.51s0,.37,0,.57v0c0,.16,0,.31,0,.46h0c-.05.52-.13,1.05-.23,1.63h0c0,.34-.12.67-.19,1a1.77,1.77,0,0,1,0,.2c0,.06,0,.13,0,.19s0,.14-.05.21V41l-.12.48c-.18.7-.4,1.4-.64,2.06,0,.12-.08.25-.13.37l0,.13c-.13.32-.26.66-.4,1-.07.16-.14.33-.22.5l-.42.89c-.15.3-.31.61-.53,1s-.35.63-.52.91-.4.63-.58.9l-.27.41c-.21.31-.44.62-.68.94l-.23.28-.06.08-.27.34L60,51.3l-.2.24-.13.16a26.91,26.91,0,0,1-2.6,2.63l-.38.32,0,0-.4.34-.42.33a26.28,26.28,0,0,1-2.62,1.78l-.08,0-.37.22c-.62.35-1.26.68-1.89,1l-.32.15-.26.11-.4.17-.94.37c-.71.25-1.42.48-2.12.66l-.53.14-.09,0-.43.1-1.07.22-.55.09-.23,0-.24,0-.57.07V55.4q.45-.06.9-.15a20.68,20.68,0,0,0-1.41-40.83v6.13l-.47-.07a14.89,14.89,0,0,0-4.11,0l-.48.07V9.36a46,46,0,0,1,6.13.07l.63.09.4.08c.37.06.73.14,1.07.21l.46.11h.06l.53.15c.7.18,1.41.41,2.11.66l.95.37.5.21.48.22c.61.28,1.23.6,1.89,1l.33.19.12.07.37.23a23,23,0,0,1,2.25,1.56l.42.32.41.34a5.24,5.24,0,0,1,.4.35,24.65,24.65,0,0,1,2.59,2.62,2.05,2.05,0,0,1,.2.23l.14.16.33.42.28.35c.24.32.47.64.68.94l.28.41c.18.27.37.57.56.89s.34.57.53.92.38.69.53,1,.29.61.42.9l.22.49c.14.33.27.67.4,1l.06.18.12.32c.23.66.45,1.35.63,2.07,0,.17.08.34.13.52l0,.2a1.74,1.74,0,0,1,0,.22,1,1,0,0,1,0,.2c.07.32.14.66.19,1l.09.52c0,.2,0,.4.08.6s0,.35.06.51h0c0,.16,0,.33,0,.5s0,.39,0,.59,0,.36,0,.49v.47C65.9,34.51,65.9,34.73,65.9,34.94Z" transform="translate(-14.42 -9.29)"/><path class="cls-1" d="M79,23.89A3,3,0,0,0,77.85,23a12,12,0,0,0-1.68-.6c-.5-.15-.89-.29-1.17-.4a2.18,2.18,0,0,1-.7-.46,1,1,0,0,1-.28-.7,1.17,1.17,0,0,1,.37-.92,1.44,1.44,0,0,1,1-.32,1.79,1.79,0,0,1,1.15.35,1.24,1.24,0,0,1,.46.9h2.33a3,3,0,0,0-1.13-2.21,4.21,4.21,0,0,0-2.66-.8,4.88,4.88,0,0,0-1.93.37,3.06,3.06,0,0,0-1.32,1.07,2.87,2.87,0,0,0-.47,1.63,2.6,2.6,0,0,0,.46,1.6,2.87,2.87,0,0,0,1.11.89,12.31,12.31,0,0,0,1.67.6,10.39,10.39,0,0,1,1.19.39,1.92,1.92,0,0,1,.72.47,1.1,1.1,0,0,1,.29.77,1.18,1.18,0,0,1-.43.94,1.78,1.78,0,0,1-1.16.35,1.66,1.66,0,0,1-1.15-.38,1.48,1.48,0,0,1-.46-1H71.78a2.87,2.87,0,0,0,.53,1.68,3.25,3.25,0,0,0,1.4,1.09,5,5,0,0,0,2,.38,4.32,4.32,0,0,0,2-.43A3,3,0,0,0,79,27.05a3,3,0,0,0,.44-1.57A2.53,2.53,0,0,0,79,23.89Z" transform="translate(-14.42 -9.29)"/><path class="cls-1" d="M88.54,19.56a3,3,0,0,0-1.29-1.16A4.78,4.78,0,0,0,85.16,18H81.27V28.53h2.12V24.48h1.77A4.6,4.6,0,0,0,87.31,24a3,3,0,0,0,1.26-1.2,3.24,3.24,0,0,0,.4-1.59A3.28,3.28,0,0,0,88.54,19.56Zm-2.17,2.81a1.82,1.82,0,0,1-1.3.4H83.39V19.7h1.68c1.15,0,1.72.51,1.72,1.54A1.49,1.49,0,0,1,86.37,22.37Z" transform="translate(-14.42 -9.29)"/><path class="cls-1" d="M100.05,20.45a5.16,5.16,0,0,0-2-1.93,5.65,5.65,0,0,0-5.45,0,5.14,5.14,0,0,0-2,1.93A5.4,5.4,0,0,0,90,23.22a5.49,5.49,0,0,0,.73,2.8,5.12,5.12,0,0,0,2,1.92,5.63,5.63,0,0,0,5.44,0,5.09,5.09,0,0,0,2-1.92,5.48,5.48,0,0,0,.72-2.8A5.4,5.4,0,0,0,100.05,20.45Zm-1.87,4.63a3,3,0,0,1-1.13,1.24,3.21,3.21,0,0,1-1.68.43,3.24,3.24,0,0,1-1.69-.43,2.92,2.92,0,0,1-1.14-1.24,4.4,4.4,0,0,1,0-3.71,2.87,2.87,0,0,1,1.14-1.22,3.34,3.34,0,0,1,1.69-.42,3.3,3.3,0,0,1,1.68.42,2.91,2.91,0,0,1,1.13,1.22,4.4,4.4,0,0,1,0,3.71Z" transform="translate(-14.42 -9.29)"/><path class="cls-1" d="M101.78,18v1.71h2.82v8.85h2.12V19.68h2.81V18Z" transform="translate(-14.42 -9.29)"/><path class="cls-1" d="M124.26,20.45a5.16,5.16,0,0,0-2-1.93,5.67,5.67,0,0,0-5.46,0,5.12,5.12,0,0,0-2,1.93,5.31,5.31,0,0,0-.73,2.77,5.39,5.39,0,0,0,.73,2.8,5.09,5.09,0,0,0,2,1.92,5.65,5.65,0,0,0,5.45,0,5.09,5.09,0,0,0,2-1.92,5.48,5.48,0,0,0,.72-2.8A5.4,5.4,0,0,0,124.26,20.45Zm-1.87,4.63a3,3,0,0,1-1.13,1.24,3.52,3.52,0,0,1-3.37,0,2.92,2.92,0,0,1-1.14-1.24,4.4,4.4,0,0,1,0-3.71,2.87,2.87,0,0,1,1.14-1.22,3.59,3.59,0,0,1,3.37,0,2.91,2.91,0,0,1,1.13,1.22,4.4,4.4,0,0,1,0,3.71Z" transform="translate(-14.42 -9.29)"/><path class="cls-1" d="M133.46,18v7.26L128.67,18h-2.12V28.53h2.12V21.29l4.79,7.24h2.12V18Z" transform="translate(-14.42 -9.29)"/><path class="cls-1" d="M76.19,49a1.91,1.91,0,0,0-.47-.58,1.38,1.38,0,0,0-.66-.28,1.9,1.9,0,0,0,.84-.55,1.48,1.48,0,0,0,.31-1A1.53,1.53,0,0,0,76,45.8a1.65,1.65,0,0,0-.7-.59A2.76,2.76,0,0,0,74.13,45H71.78v6.48h2.45a2.66,2.66,0,0,0,1.14-.23,1.75,1.75,0,0,0,.74-.62,1.59,1.59,0,0,0,.25-.89A1.66,1.66,0,0,0,76.19,49Zm-3.55-3.31h1.42A1.47,1.47,0,0,1,75,46a1,1,0,0,1,.33.77.94.94,0,0,1-.33.77,1.38,1.38,0,0,1-.93.28H72.64Zm2.51,4.79a1.57,1.57,0,0,1-1,.29H72.64V48.49h1.48a1.52,1.52,0,0,1,1,.31,1.05,1.05,0,0,1,.38.85A1,1,0,0,1,75.15,50.48Z" transform="translate(-14.42 -9.29)"/><path class="cls-1" d="M82.89,48.76a1.91,1.91,0,0,0,1.17-.68,1.88,1.88,0,0,0,.39-1.18,1.91,1.91,0,0,0-.25-1,1.75,1.75,0,0,0-.77-.67A2.78,2.78,0,0,0,82.18,45H80.06v6.48h.86V48.82h1l1.56,2.65h1Zm-2-.62V45.69h1.26a1.52,1.52,0,0,1,1,.32,1.15,1.15,0,0,1,.34.89,1.23,1.23,0,0,1-.35.91,1.46,1.46,0,0,1-1,.33Z" transform="translate(-14.42 -9.29)"/><path class="cls-1" d="M91.24,45h-1l-2.37,6.44h.91L89.31,50h2.86l.53,1.44h.9Zm-1.68,4.31,1.18-3.27,1.19,3.27Z" transform="translate(-14.42 -9.29)"/><path class="cls-1" d="M101.45,45v5.14L98,45h-.86v6.48H98V46.31l3.44,5.16h.85V45Z" transform="translate(-14.42 -9.29)"/><path class="cls-1" d="M111.37,46.52a2.68,2.68,0,0,0-1.2-1.13,4.1,4.1,0,0,0-1.85-.4h-2v6.48h2a4.24,4.24,0,0,0,1.85-.38,2.66,2.66,0,0,0,1.2-1.12,3.4,3.4,0,0,0,.42-1.72A3.44,3.44,0,0,0,111.37,46.52Zm-1.12,3.59a2.63,2.63,0,0,1-1.93.66h-1.19V45.68h1.19a2.61,2.61,0,0,1,1.93.68,2.55,2.55,0,0,1,.67,1.89A2.48,2.48,0,0,1,110.25,50.11Z" transform="translate(-14.42 -9.29)"/><path class="cls-1" d="M115.44,45v6.48h.86V45Z" transform="translate(-14.42 -9.29)"/><path class="cls-1" d="M124.57,45v5.14L121.13,45h-.86v6.48h.86V46.31l3.44,5.16h.85V45Z" transform="translate(-14.42 -9.29)"/><path class="cls-1" d="M132.06,48v.68h2.61A2.36,2.36,0,0,1,134,50.2a2.25,2.25,0,0,1-1.58.56,2.46,2.46,0,0,1-1.24-.31,2.21,2.21,0,0,1-.86-.88,2.77,2.77,0,0,1-.32-1.34,2.74,2.74,0,0,1,.32-1.34,2.26,2.26,0,0,1,.86-.9,2.56,2.56,0,0,1,1.24-.31,2.33,2.33,0,0,1,1.2.31,2,2,0,0,1,.79.88h1a2.88,2.88,0,0,0-1.17-1.44,3.35,3.35,0,0,0-1.84-.51,3.4,3.4,0,0,0-1.67.42,3.21,3.21,0,0,0-1.19,1.18,3.39,3.39,0,0,0-.43,1.71,3.33,3.33,0,0,0,.43,1.7,3.11,3.11,0,0,0,1.19,1.17,3.3,3.3,0,0,0,1.67.43,3.21,3.21,0,0,0,1.57-.39,3.09,3.09,0,0,0,1.13-1,3.16,3.16,0,0,0,.51-1.46V48Z" transform="translate(-14.42 -9.29)"/><path class="cls-1" d="M80.18,34.17a4.53,4.53,0,0,0-1.91-1.79,6.13,6.13,0,0,0-2.87-.64H71.78V42H75.4a6.25,6.25,0,0,0,2.87-.63,4.59,4.59,0,0,0,1.91-1.79,5.24,5.24,0,0,0,.67-2.69A5.35,5.35,0,0,0,80.18,34.17Zm-2.33,5.2a3.44,3.44,0,0,1-2.52.88H73.86V33.48h1.47a3.11,3.11,0,0,1,3.41,3.41A3.36,3.36,0,0,1,77.85,39.37Z" transform="translate(-14.42 -9.29)"/><path class="cls-1" d="M83.89,31.74V42H86V31.74Z" transform="translate(-14.42 -9.29)"/><path class="cls-1" d="M93.74,36.3v1.57h3.55a2.86,2.86,0,0,1-1,1.74,2.92,2.92,0,0,1-1.94.63,3.41,3.41,0,0,1-1.69-.41,2.86,2.86,0,0,1-1.13-1.18,3.67,3.67,0,0,1-.41-1.79,3.73,3.73,0,0,1,.4-1.77,2.79,2.79,0,0,1,1.11-1.17,3.14,3.14,0,0,1,1.63-.41,3,3,0,0,1,1.45.33,2.46,2.46,0,0,1,1,1h2.39a4.37,4.37,0,0,0-1.78-2.38,5.83,5.83,0,0,0-5.73-.17,4.88,4.88,0,0,0-1.9,1.87,5.65,5.65,0,0,0,0,5.41,4.92,4.92,0,0,0,1.9,1.86,5.43,5.43,0,0,0,2.7.67,5.13,5.13,0,0,0,2.41-.55,5.05,5.05,0,0,0,1.76-1.46,4.76,4.76,0,0,0,.89-2V36.3Z" transform="translate(-14.42 -9.29)"/><path class="cls-1" d="M102.36,31.74V42h2.08V31.74Z" transform="translate(-14.42 -9.29)"/><path class="cls-1" d="M107.42,31.74V33.4h2.76V42h2.07V33.4H115V31.74Z" transform="translate(-14.42 -9.29)"/><path class="cls-1" d="M123.5,31.73h-2.42L117.36,42h2.18l.69-2h4.12l.68,2h2.19Zm-2.71,6.67,1.5-4.29,1.49,4.29Z" transform="translate(-14.42 -9.29)"/><path class="cls-1" d="M132.17,40.37V31.74H130.1V42h5.48V40.37Z" transform="translate(-14.42 -9.29)"/><rect class="cls-1" x="26.07" y="41.36" width="0.03" height="10.07"/></svg>